<svg xmlns="http://www.w3.org/2000/svg" width="900" height="900" viewBox="0 0 900 900"><title>Enterprise tri-sector prime allocation, r &lt;= 114</title><desc>Prime-only address portrait. The 120-degree carrier embedding is visualization only, not the native metric.</desc><rect width="100%" height="100%" fill="white"/><g fill="black"><circle cx="885.00" cy="450.00" r="1.55"/><circle cx="667.50" cy="73.28" r="1.55"/><circle cx="15.00" cy="450.00" r="1.55"/><circle cx="675.13" cy="86.50" r="1.55"/><circle cx="660.00" cy="86.50" r="1.55"/><circle cx="645.00" cy="86.50" r="1.55"/><circle cx="22.63" cy="436.78" r="1.55"/><circle cx="45.00" cy="450.00" r="1.55"/><circle cx="652.63" cy="99.73" r="1.55"/><circle cx="637.50" cy="99.73" r="1.55"/><circle cx="622.50" cy="99.73" r="1.55"/><circle cx="607.50" cy="99.73" r="1.55"/><circle cx="37.63" cy="423.55" r="1.55"/><circle cx="60.00" cy="436.78" r="1.55"/><circle cx="82.50" cy="450.00" r="1.55"/><circle cx="637.50" cy="112.96" r="1.55"/><circle cx="592.50" cy="112.96" r="1.55"/><circle cx="577.50" cy="112.96" r="1.55"/><circle cx="562.50" cy="112.96" r="1.55"/><circle cx="52.63" cy="410.32" r="1.55"/><circle cx="75.00" cy="423.55" r="1.55"/><circle cx="97.50" cy="436.78" r="1.55"/><circle cx="120.00" cy="450.00" r="1.55"/><circle cx="622.50" cy="126.18" r="1.55"/><circle cx="607.50" cy="126.18" r="1.55"/><circle cx="577.50" cy="126.18" r="1.55"/><circle cx="562.50" cy="126.18" r="1.55"/><circle cx="547.50" cy="126.18" r="1.55"/><circle cx="75.00" cy="397.09" r="1.55"/><circle cx="120.00" cy="423.55" r="1.55"/><circle cx="135.00" cy="436.78" r="1.55"/><circle cx="157.50" cy="450.00" r="1.55"/><circle cx="607.50" cy="139.41" r="1.55"/><circle cx="592.50" cy="139.41" r="1.55"/><circle cx="562.50" cy="139.41" r="1.55"/><circle cx="547.50" cy="139.41" r="1.55"/><circle cx="532.50" cy="139.41" r="1.55"/><circle cx="517.50" cy="139.41" r="1.55"/><circle cx="75.00" cy="383.86" r="1.55"/><circle cx="90.00" cy="397.09" r="1.55"/><circle cx="105.00" cy="410.32" r="1.55"/><circle cx="127.50" cy="423.55" r="1.55"/><circle cx="150.00" cy="436.78" r="1.55"/><circle cx="195.00" cy="450.00" r="1.55"/><circle cx="592.50" cy="152.64" r="1.55"/><circle cx="577.50" cy="152.64" r="1.55"/><circle cx="562.50" cy="152.64" r="1.55"/><circle cx="532.50" cy="152.64" r="1.55"/><circle cx="502.50" cy="152.64" r="1.55"/><circle cx="487.50" cy="152.64" r="1.55"/><circle cx="472.50" cy="152.64" r="1.55"/><circle cx="82.50" cy="370.64" r="1.55"/><circle cx="120.00" cy="397.09" r="1.55"/><circle cx="135.00" cy="410.32" r="1.55"/><circle cx="165.00" cy="436.78" r="1.55"/><circle cx="210.00" cy="450.00" r="1.55"/><circle cx="577.50" cy="165.86" r="1.55"/><circle cx="547.50" cy="165.86" r="1.55"/><circle cx="532.50" cy="165.86" r="1.55"/><circle cx="517.50" cy="165.86" r="1.55"/><circle cx="487.50" cy="165.86" r="1.55"/><circle cx="472.50" cy="165.86" r="1.55"/><circle cx="457.50" cy="165.86" r="1.55"/><circle cx="442.50" cy="165.86" r="1.55"/><circle cx="427.50" cy="165.86" r="1.55"/><circle cx="90.00" cy="357.41" r="1.55"/><circle cx="105.00" cy="370.64" r="1.55"/><circle cx="120.00" cy="383.86" r="1.55"/><circle cx="142.50" cy="397.09" r="1.55"/><circle cx="157.50" cy="410.32" r="1.55"/><circle cx="172.50" cy="423.55" r="1.55"/><circle cx="195.00" cy="436.78" r="1.55"/><circle cx="225.00" cy="450.00" r="1.55"/></g></svg>